<?xml version="1.0" encoding="utf-8"?>
<!-- Generator: Adobe Illustrator 18.1.1, SVG Export Plug-In . SVG Version: 6.00 Build 0)  -->
<svg version="1.1" id="Layer_1" xmlns="http://www.w3.org/2000/svg" xmlns:xlink="http://www.w3.org/1999/xlink" x="0px" y="0px"
	 viewBox="0 0 370 170" enable-background="new 0 0 370 170" xml:space="preserve">
<g>
	<path fill="#33B5B3" d="M148.7,122.3v1.9c1-1.6,2.6-2.2,4.2-2.2c2.4,0,4.7,1.6,4.7,4.9v8.6h-2.9v-7.6c0-2.2-1.2-3.1-2.7-3.1
		c-1.8,0-3.3,1.4-3.3,3.9v6.8h-2.9v-13.1H148.7z"/>
	<path fill="#33B5B3" d="M172.7,129.9h-9.5c0.4,2.1,2.1,2.9,3.8,2.9c1.4,0,2.8-0.6,3.7-1.9l1.9,1.8c-1.5,1.8-3.5,2.7-5.7,2.7
		c-3.4,0-6.9-2.4-6.9-6.9c0-4.5,3.3-6.8,6.7-6.8c3.2,0,6,2.1,6,6.5C172.8,128.7,172.8,129.2,172.7,129.9 M163.2,127.5h6.8
		c-0.1-2.2-1.6-3.2-3.2-3.2C165,124.3,163.4,125.4,163.2,127.5"/>
	<polygon fill="#33B5B3" points="187.8,135.5 184.5,126.9 181.2,135.5 178.3,135.5 173.5,122.3 176.7,122.3 179.7,131.4 183,122.3 
		186,122.3 189.3,131.4 192.3,122.3 195.5,122.3 190.7,135.5 	"/>
	<path fill="#33B5B3" d="M209.1,135.5c-2.2,0-4.7-0.9-6.1-2.6l2.1-2c1.2,1.5,2.9,2,4.2,2c1.4,0,2.4-0.6,2.4-1.4c0-1-1.4-1.2-3.1-1.6
		c-2.1-0.5-4.8-1.2-4.8-4.2c0-2.8,2.5-4.1,5.2-4.1c1.8,0,3.6,0.6,4.9,1.5l-1.6,2.1c-0.9-0.7-2.1-1.1-3.2-1.1c-1.3,0-2.3,0.5-2.3,1.5
		c0,1.1,1.4,1.4,3.1,1.8c2.2,0.4,4.8,1,4.8,3.7C214.7,133.9,212.1,135.5,209.1,135.5"/>
	<path fill="#33B5B3" d="M225.5,134.6c-1,0.6-2.1,0.9-3.2,0.9c-2.2,0-4.3-1.4-4.3-4.4v-6.4h-2.8V122h2.8v-3.4h2.9v3.4h3.4v2.7h-3.4
		v6.2c0,1.4,0.8,2,1.8,2c0.6,0,1.2-0.2,1.7-0.5L225.5,134.6z"/>
	<path fill="#33B5B3" d="M242.5,134.4c-0.6,0.7-1.5,1-2.4,1c-1.3,0-2.6-0.7-3-2.3c-1.1,1.6-3.1,2.3-4.8,2.3c-3.2,0-6.3-2.4-6.3-6.9
		c0-4.6,3.4-6.9,6.6-6.9c1.5,0,3.3,0.5,4.2,2V122h2.8v9.6c0,0.9,0.5,1.2,1,1.2c0.3,0,0.8-0.1,1-0.3L242.5,134.4z M236.7,128.5
		c0-2.9-2-4.2-4-4.2c-1.9,0-3.9,1.4-3.9,4.3c0,2.9,1.9,4.3,3.9,4.3C234.7,132.8,236.7,131.4,236.7,128.5"/>
	<path fill="#33B5B3" d="M252.4,134.6c-1,0.6-2.1,0.9-3.2,0.9c-2.2,0-4.3-1.4-4.3-4.4v-6.4H242V122h2.8v-3.4h2.9v3.4h3.4v2.7h-3.4
		v6.2c0,1.4,0.8,2,1.8,2c0.6,0,1.2-0.2,1.7-0.5L252.4,134.6z"/>
	<path fill="#33B5B3" d="M265.4,129.9H256c0.4,2.1,2.1,2.9,3.8,2.9c1.4,0,2.8-0.6,3.7-1.9l1.9,1.8c-1.5,1.8-3.5,2.7-5.7,2.7
		c-3.4,0-6.9-2.4-6.9-6.9c0-4.5,3.3-6.8,6.7-6.8c3.2,0,6,2.1,6,6.5C265.6,128.7,265.6,129.2,265.4,129.9 M255.9,127.5h6.8
		c-0.1-2.2-1.6-3.2-3.2-3.2C257.7,124.3,256.2,125.4,255.9,127.5"/>
	<path fill="#33B5B3" d="M287.6,128.6c0,3.9-2.9,6.9-6.9,6.9c-4,0-6.9-3-6.9-6.9c0-3.9,2.9-6.9,6.9-6.9
		C284.8,121.7,287.6,124.7,287.6,128.6 M276.7,128.6c0,2.4,1.7,4.2,4,4.2s4-1.8,4-4.2c0-2.4-1.7-4.2-4-4.2S276.7,126.1,276.7,128.6"
		/>
	<path fill="#33B5B3" d="M288.6,125v-2.7h2.6v-1.2c0-3.1,2.2-4.4,4.4-4.4c1.1,0,2.2,0.3,3.1,0.9l-1.1,2.2c-0.6-0.4-1.2-0.6-1.7-0.6
		c-1,0-1.8,0.6-1.8,2v1.1h3.4v2.7h-3.4v10.5h-2.9V125H288.6z"/>
	<path fill="#33B5B3" d="M319.8,128.3c0,4.5-3.2,6.9-6.4,6.9c-1.6,0-3.2-0.6-4.4-1.9v7.4h-2.9v-18.9h2.8v1.8c0.9-1.2,2.5-2,4.4-2
		C316.4,121.5,319.8,123.7,319.8,128.3 M316.9,128.2c0-2.8-2-4.2-3.9-4.2c-2,0-4,1.4-4,4.2c0,2.9,2,4.3,4,4.3
		C315,132.5,316.9,131.1,316.9,128.2"/>
	<path fill="#33B5B3" d="M338.1,134.4c-0.6,0.7-1.5,1-2.4,1c-1.3,0-2.6-0.7-3-2.3c-1.1,1.6-3.1,2.3-4.8,2.3c-3.2,0-6.3-2.4-6.3-6.9
		c0-4.6,3.4-6.9,6.6-6.9c1.5,0,3.3,0.5,4.2,2V122h2.8v9.6c0,0.9,0.5,1.2,1,1.2c0.3,0,0.8-0.1,1-0.3L338.1,134.4z M332.3,128.5
		c0-2.9-2-4.2-4-4.2c-1.9,0-3.9,1.4-3.9,4.3c0,2.9,1.9,4.3,3.9,4.3C330.3,132.8,332.3,131.4,332.3,128.5"/>
	<path fill="#33B5B3" d="M351.3,134.9c0,4.3-3.2,6.5-6.5,6.5c-2.8,0-5.7-1.6-6.5-4.9l2.7-0.9c0.4,2.1,2.1,3.2,3.9,3.2
		c1.9,0,3.6-1.3,3.6-3.8v-2.1c-0.7,1.3-2.1,2.3-3.9,2.3c-2.5,0-5.2-1.7-5.2-5.4v-7.6h2.9v7.1c0,2,1.2,3.1,2.8,3.1
		c1.8,0,3.4-1.4,3.4-3.9v-6.3h2.9V134.9z"/>
	<path fill="#33B5B3" d="M124.3,135.5H121l7.1-18.3h2.9l7.1,18.3h-3.3l-1.7-4.6H126L124.3,135.5z M127,128.1h5.2l-2.6-7L127,128.1z"
		/>
</g>
<path fill="#F0EDE9" d="M26.7,133.3c1.9,0,3.4-1.1,3.4-2.9c0-1.8-1.5-2.6-3.3-2.6h-3.3v5.5H26.7z M26.5,124.3c1.5,0,2.7-1,2.7-2.5
	c0-1.7-1.4-2.3-2.6-2.3h-3.1v4.7H26.5z M34.3,130.4c0,3.1-2.4,6.4-7,6.4h-7.8v-21H27c4.3,0,6.5,2.3,6.5,5c0,2.1-1.3,4-3.3,4.6
	C32.5,126.1,34.3,127.8,34.3,130.4"/>
<path fill="#F0EDE9" d="M40.6,123.7c0.6-1.6,2.1-2.2,3.3-2.2c0.9,0,1.7,0.1,2.3,0.4l-0.9,3.9c-0.5-0.3-1.1-0.4-1.8-0.4
	c-2,0-2.9,1.2-2.9,3.4v8h-4.1v-15.1h4V123.7z"/>
<path fill="#F0EDE9" d="M52.7,136.9h-4.1v-15.1h4.1V136.9z M50.7,114.2c1.5,0,2.8,1.2,2.8,2.7c0,1.5-1.3,2.7-2.8,2.7
	c-1.5,0-2.7-1.2-2.7-2.7C47.9,115.5,49.2,114.2,50.7,114.2"/>
<path fill="#F0EDE9" d="M67.6,129.3c0-3.3-2.2-4.5-4.2-4.5c-2.3,0-4.1,1.6-4.1,4.5c0,2.8,1.7,4.5,4.1,4.5
	C65.7,133.8,67.6,132.3,67.6,129.3 M67.6,123.8v-7.9h4.1v21h-4V135c-1.1,1.3-2.6,2.2-4.8,2.2c-3.8,0-7.6-2.6-7.6-7.9
	c0-5.2,3.7-7.9,7.5-7.9C64.9,121.4,66.7,122.3,67.6,123.8"/>
<path fill="#F0EDE9" d="M86.5,129c0-2.8-2-4.3-4.1-4.3c-2.1,0-4.1,1.4-4.1,4.3c0,3,2,4.2,4,4.2C84.4,133.3,86.5,131.8,86.5,129
	 M90.6,136c0,5.3-4.1,7.9-8.4,7.9c-3.5,0-6.7-1.8-7.9-5.2l3.7-1.4c0.6,2.1,2.5,3.1,4.4,3.1c2.3,0,4.1-1.5,4.1-4.1v-2
	c-0.9,1.4-2.6,2.5-4.8,2.5c-3.7,0-7.5-2.5-7.5-7.6c0-5.1,3.9-7.7,7.7-7.7c2.1,0,3.8,0.9,4.6,2.3v-1.9h4V136z"/>
<path fill="#F0EDE9" d="M103.6,127.8c-0.2-1.9-1.5-3-3.3-3c-1.9,0-3.2,1.2-3.4,3H103.6z M107.3,130.9H96.9c0.4,2.1,2.2,2.7,3.9,2.7
	c1.7,0,3.1-0.7,4.1-2l2.5,2.5c-1.6,2-4,3.1-6.6,3.1c-4,0-8-2.6-8-7.8c0-5.2,3.9-8,7.7-8c3.7,0,7,2.5,7,7.6
	C107.4,129.5,107.4,130.1,107.3,130.9"/>
<path fill="#F0EDE9" d="M58.8,42.6c11.9,4,20.5,15.2,20.5,28.4v17l16.8-9.7V56.3c0-11.7-9.5-21.2-21.2-21.2
	C68.5,35.1,62.7,38,58.8,42.6 M45.6,50.2C35.7,52,28.2,60.7,28.2,71v17L45,78.3V56.3C45,54.2,45.2,52.2,45.6,50.2 M23.8,100
	c-0.8,0-1.5-0.2-2.2-0.6c-1.4-0.8-2.2-2.2-2.2-3.8V71c0-16.4,13.3-29.8,29.7-30c5.2-8.8,14.8-14.8,25.8-14.8c16.5,0,30,13.4,30,30
	v24.6c0,1.6-0.8,3-2.2,3.8L77.1,99.5c-1.4,0.8-3,0.8-4.4,0c-1.4-0.8-2.2-2.2-2.2-3.8V71c0-9.9-6.8-18.2-16-20.5
	c-0.5,1.8-0.8,3.8-0.8,5.8v24.6c0,1.6-0.8,3-2.2,3.8L26,99.5C25.3,99.8,24.6,100,23.8,100"/>
</svg>
