<?xml version="1.0" encoding="utf-8"?>
<!-- Generator: Adobe Illustrator 18.1.1, SVG Export Plug-In . SVG Version: 6.00 Build 0)  -->
<svg version="1.1" id="Layer_1" xmlns="http://www.w3.org/2000/svg" xmlns:xlink="http://www.w3.org/1999/xlink" x="0px" y="0px"
	 viewBox="0 0 600 221" enable-background="new 0 0 600 221" xml:space="preserve">
<g>
	<path fill="#00D4C3" d="M235.9,175.1v3.3c1.7-2.7,4.5-3.9,7.3-3.9c4.3,0,8.3,2.8,8.3,8.6v15h-5v-13.2c0-3.8-2-5.5-4.7-5.5
		c-3.1,0-5.8,2.4-5.8,6.8v11.9h-5v-23H235.9z"/>
	<path fill="#00D4C3" d="M277.8,188.3h-16.5c0.8,3.6,3.7,5,6.6,5c2.5,0,4.9-1,6.5-3.2l3.2,3.1c-2.6,3.2-6.1,4.8-9.9,4.8
		c-6,0-12-4.2-12-12.1c0-7.8,5.8-11.9,11.7-11.9c5.6,0,10.5,3.7,10.5,11.4C278,186.2,278,187.2,277.8,188.3 M261.1,184.2H273
		c-0.1-3.8-2.8-5.6-5.7-5.6C264.3,178.5,261.6,180.4,261.1,184.2"/>
	<polygon fill="#00D4C3" points="304.2,198.1 298.4,183 292.6,198.1 287.7,198.1 279.2,175.1 284.8,175.1 290.1,190.9 295.8,175.1 
		301,175.1 306.8,190.9 312.1,175.1 317.7,175.1 309.2,198.1 	"/>
	<path fill="#00D4C3" d="M341.4,198.1c-3.8,0-8.2-1.5-10.7-4.6l3.7-3.5c2.1,2.6,5,3.5,7.4,3.5c2.4,0,4.2-1,4.2-2.4
		c0-1.7-2.5-2.1-5.3-2.8c-3.7-0.8-8.4-2.1-8.4-7.3c0-4.9,4.3-7.1,9.2-7.1c3.2,0,6.2,1,8.5,2.7l-2.9,3.7c-1.5-1.3-3.6-2-5.6-2
		c-2.2,0-4.1,0.9-4.1,2.6c0,2,2.4,2.5,5.4,3.1c3.9,0.8,8.3,1.7,8.3,6.4C351.1,195.3,346.6,198.1,341.4,198.1"/>
	<path fill="#00D4C3" d="M370,196.5c-1.7,1-3.7,1.6-5.6,1.6c-3.9,0-7.6-2.4-7.6-7.7v-11.1h-4.9v-4.7h4.9v-5.9h5v5.9h6v4.7h-6v10.9
		c0,2.5,1.5,3.5,3.2,3.5c1,0,2.1-0.3,3.1-0.9L370,196.5z"/>
	<path fill="#00D4C3" d="M399.6,196.3c-1.1,1.2-2.6,1.7-4.1,1.7c-2.2,0-4.6-1.2-5.2-4c-2,2.8-5.3,4-8.4,4c-5.6,0-11-4.2-11-12
		c0-8.1,5.9-12.1,11.5-12.1c2.7,0,5.7,0.9,7.3,3.4v-2.9h4.9v16.8c0,1.6,0.8,2.1,1.7,2.1c0.6,0,1.4-0.2,1.8-0.6L399.6,196.3z
		 M389.7,185.9c0-5-3.5-7.4-6.9-7.4c-3.4,0-6.8,2.4-6.8,7.5c0,5,3.3,7.5,6.7,7.5S389.7,191,389.7,185.9"/>
	<path fill="#00D4C3" d="M417,196.5c-1.7,1-3.7,1.6-5.6,1.6c-3.9,0-7.6-2.4-7.6-7.7v-11.1h-4.9v-4.7h4.9v-5.9h5v5.9h6v4.7h-6v10.9
		c0,2.5,1.5,3.5,3.2,3.5c1,0,2.1-0.3,3.1-0.9L417,196.5z"/>
	<path fill="#00D4C3" d="M439.8,188.3h-16.5c0.8,3.6,3.7,5,6.6,5c2.5,0,4.9-1,6.5-3.2l3.2,3.1c-2.6,3.2-6.1,4.8-9.9,4.8
		c-6,0-12-4.2-12-12.1c0-7.8,5.8-11.9,11.7-11.9c5.6,0,10.5,3.7,10.5,11.4C440,186.2,440,187.2,439.8,188.3 M423.1,184.2h11.8
		c-0.1-3.8-2.8-5.6-5.7-5.6C426.3,178.5,423.6,180.4,423.1,184.2"/>
	<path fill="#00D4C3" d="M478.5,186c0,6.8-5,12-12,12c-7,0-12-5.2-12-12c0-6.8,5-12,12-12C473.5,174,478.5,179.2,478.5,186
		 M459.5,186c0,4.3,2.9,7.4,7,7.4c4.1,0,7-3.1,7-7.4c0-4.2-2.9-7.3-7-7.3C462.4,178.7,459.5,181.8,459.5,186"/>
	<path fill="#00D4C3" d="M480.3,179.7v-4.7h4.5V173c0-5.4,3.8-7.7,7.7-7.7c1.9,0,3.8,0.5,5.4,1.6l-1.9,3.9c-1-0.7-2.1-1.1-3.1-1.1
		c-1.7,0-3.1,1.1-3.1,3.5v1.8h6v4.7h-6v18.3h-5v-18.3H480.3z"/>
	<path fill="#00D4C3" d="M534.7,185.5c0,7.8-5.5,12-11.1,12c-2.7,0-5.6-1-7.6-3.2V207h-5v-33h4.9v3.1c1.6-2.2,4.4-3.5,7.6-3.5
		C528.8,173.6,534.7,177.6,534.7,185.5 M529.7,185.4c0-4.9-3.4-7.3-6.8-7.3c-3.5,0-6.9,2.4-6.9,7.3c0,5,3.5,7.5,7,7.5
		C526.4,192.8,529.7,190.4,529.7,185.4"/>
	<path fill="#00D4C3" d="M566.6,196.3c-1.1,1.2-2.6,1.7-4.1,1.7c-2.2,0-4.6-1.2-5.2-4c-2,2.8-5.3,4-8.4,4c-5.6,0-11-4.2-11-12
		c0-8.1,5.9-12.1,11.5-12.1c2.7,0,5.7,0.9,7.3,3.4v-2.9h4.9v16.8c0,1.6,0.8,2.1,1.7,2.1c0.6,0,1.4-0.2,1.8-0.6L566.6,196.3z
		 M556.6,185.9c0-5-3.5-7.4-6.9-7.4c-3.4,0-6.8,2.4-6.8,7.5c0,5,3.3,7.5,6.7,7.5C553.1,193.5,556.6,191,556.6,185.9"/>
	<path fill="#00D4C3" d="M589.8,197.1c0,7.5-5.7,11.3-11.4,11.3c-4.8,0-9.9-2.7-11.3-8.6l4.8-1.6c0.7,3.6,3.6,5.6,6.8,5.6
		c3.3,0,6.3-2.2,6.3-6.6v-3.7c-1.3,2.3-3.6,4.1-6.9,4.1c-4.3,0-9.1-3-9.1-9.5v-13.2h5v12.5c0,3.5,2.1,5.4,4.9,5.4c3.1,0,6-2.4,6-6.8
		v-11h5V197.1z"/>
	<path fill="#00D4C3" d="M193.3,198.1h-5.7l12.5-31.9h5.1l12.4,31.9h-5.7l-3-8h-12.6L193.3,198.1z M198,185.2h9.1l-4.6-12.2
		L198,185.2z"/>
</g>
<path d="M22.8,194.2c3.3,0,6-1.8,6-5c0-3.1-2.6-4.6-5.7-4.6h-5.7v9.6H22.8z M22.5,178.5c2.7,0,4.7-1.7,4.7-4.3c0-2.9-2.4-4-4.5-4
	h-5.3v8.3H22.5z M36.1,189.3c0,5.4-4.2,11.2-12.3,11.2H10.1v-36.6h13.3c7.5,0,11.4,4,11.4,8.8c0,3.7-2.3,6.9-5.8,8.1
	C32.9,181.7,36.1,184.7,36.1,189.3"/>
<path d="M47.2,177.6c1.1-2.8,3.7-3.8,5.8-3.8c1.5,0,3,0.1,4,0.7l-1.5,6.7c-0.8-0.4-2-0.7-3.1-0.7c-3.6,0-5.1,2.1-5.1,6v14h-7.1
	v-26.4h7.1V177.6z"/>
<path d="M68.3,200.5h-7.1v-26.4h7.1V200.5z M64.7,161c2.6,0,4.8,2.2,4.8,4.8c0,2.6-2.2,4.7-4.8,4.7c-2.6,0-4.7-2.2-4.7-4.7
	C59.9,163.2,62.1,161,64.7,161"/>
<path d="M94.3,187.3c0-5.7-3.8-7.9-7.4-7.9c-4.1,0-7.1,2.8-7.1,7.8c0,4.9,3,7.9,7.2,7.9C91,195.1,94.3,192.6,94.3,187.3 M94.3,177.7
	v-13.8h7.1v36.6h-7.1v-3.2c-1.9,2.3-4.6,3.8-8.4,3.8c-6.7,0-13.3-4.6-13.3-13.9c0-9.1,6.5-13.8,13-13.8
	C89.5,173.5,92.6,175,94.3,177.7"/>
<path d="M127.2,186.8c0-4.9-3.6-7.5-7.1-7.5c-3.6,0-7.2,2.5-7.2,7.6c0,5.3,3.5,7.4,6.9,7.4C123.7,194.3,127.2,191.6,127.2,186.8
	 M134.3,198.9c0,9.2-7.2,13.8-14.6,13.8c-6.1,0-11.7-3.2-13.8-9l6.5-2.5c1.1,3.7,4.4,5.5,7.7,5.5c4,0,7.2-2.6,7.2-7.2V196
	c-1.6,2.5-4.5,4.3-8.5,4.3c-6.5,0-13.1-4.3-13.1-13.3c0-9,6.8-13.5,13.5-13.5c3.7,0,6.6,1.5,8,4v-3.3h7.1V198.9z"/>
<path d="M157.1,184.7c-0.3-3.3-2.6-5.2-5.7-5.2c-3.4,0-5.6,2.2-6,5.2H157.1z M163.6,190.1h-18.3c0.6,3.6,3.9,4.8,6.7,4.8
	c2.9,0,5.5-1.2,7.2-3.5l4.3,4.3c-2.8,3.6-7,5.5-11.6,5.5c-7,0-13.9-4.5-13.9-13.7c0-9.1,6.7-13.9,13.5-13.9
	c6.5,0,12.3,4.4,12.3,13.3C163.8,187.6,163.8,188.7,163.6,190.1"/>
<path d="M78.9,35.9c20.8,6.9,35.9,26.6,35.9,49.7v29.7L144,98.3V59.8c0-20.4-16.6-37-37-37C95.8,22.8,85.6,27.9,78.9,35.9
	 M55.8,49.2c-17.2,3.1-30.4,18.2-30.4,36.4v29.7l29.3-16.9V59.8C54.7,56.1,55.1,52.6,55.8,49.2 M17.7,136.2c-1.3,0-2.7-0.3-3.8-1
	c-2.4-1.4-3.8-3.9-3.8-6.7v-43c0-28.7,23.2-52.1,51.9-52.3C71.1,17.8,87.9,7.4,107,7.4c28.9,0,52.3,23.5,52.3,52.3v43
	c0,2.7-1.5,5.3-3.8,6.7l-44.6,25.8c-2.4,1.4-5.3,1.4-7.7,0c-2.4-1.4-3.8-3.9-3.8-6.7v-43c0-17.3-11.9-31.8-27.9-35.8
	c-0.9,3.2-1.4,6.6-1.4,10.1v43c0,2.7-1.5,5.3-3.8,6.7l-44.6,25.8C20.4,135.8,19.1,136.2,17.7,136.2"/>
</svg>
